HIERARCHY
ROOT Hips
{
	OFFSET 0.000000 71.427986 0.000000
	CHANNELS 6 Xposition Yposition Zposition Xrotation Yrotation Zrotation
	JOINT Pelvis
	{
		OFFSET 0.000000 0.000000 0.000000
		CHANNELS 3 Xrotation Yrotation Zrotation
		JOINT LeftUpLeg
		{
			OFFSET 6.797100 -2.508499 -1.318700
			CHANNELS 3 Xrotation Yrotation Zrotation
			JOINT LeftLeg
			{
				OFFSET 0.069008 -29.241863 0.690200
				CHANNELS 3 Xrotation Yrotation Zrotation
				JOINT LeftFoot
				{
					OFFSET -0.069008 -29.568123 -0.266800
					CHANNELS 3 Xrotation Yrotation Zrotation
					JOINT LeftToeBase
					{
						OFFSET 3.145500 -8.631000 16.059900
						CHANNELS 3 Xrotation Yrotation Zrotation
						End Site
						{
							OFFSET 0.000000 18.501587 0.000000
						}
					}
				}
			}
			JOINT Left_ShortSleeve
			{
				OFFSET 0.265923 -10.480953 1.153800
				CHANNELS 3 Xrotation Yrotation Zrotation
				End Site
				{
					OFFSET 1.725763 19.823879 0.000000
				}
			}
		}
		JOINT RightUpLeg
		{
			OFFSET -6.797100 -2.508499 -1.318700
			CHANNELS 3 Xrotation Yrotation Zrotation
			JOINT RightLeg
			{
				OFFSET -0.082453 -29.241932 0.688000
				CHANNELS 3 Xrotation Yrotation Zrotation
				JOINT RightFoot
				{
					OFFSET 0.082453 -29.568058 -0.264600
					CHANNELS 3 Xrotation Yrotation Zrotation
					JOINT RightToeBase
					{
						OFFSET -3.115300 -8.682800 16.113400
						CHANNELS 3 Xrotation Yrotation Zrotation
						End Site
						{
							OFFSET 0.000000 18.567114 0.000000
						}
					}
				}
			}
			JOINT Right_ShortSleeve
			{
				OFFSET -0.265923 -10.480953 1.153800
				CHANNELS 3 Xrotation Yrotation Zrotation
				End Site
				{
					OFFSET -1.725766 19.823910 0.000000
				}
			}
		}
	}
	JOINT Spine
	{
		OFFSET 0.000000 13.368103 0.470500
		CHANNELS 3 Xrotation Yrotation Zrotation
		JOINT Spine1
		{
			OFFSET 0.147000 13.837402 0.538800
			CHANNELS 3 Xrotation Yrotation Zrotation
			JOINT Spine2
			{
				OFFSET 0.168000 16.242897 -1.435500
				CHANNELS 3 Xrotation Yrotation Zrotation
				JOINT Neck
				{
					OFFSET 0.217200 18.631500 -1.679100
					CHANNELS 3 Xrotation Yrotation Zrotation
					JOINT Head
					{
						OFFSET 0.000000 6.599396 1.385900
						CHANNELS 3 Xrotation Yrotation Zrotation
						JOINT Hat
						{
							OFFSET -0.532200 27.220596 -10.096100
							CHANNELS 3 Xrotation Yrotation Zrotation
							End Site
							{
								OFFSET 0.000000 22.029861 0.000000
							}
						}
						JOINT HairD
						{
							OFFSET -10.777400 17.437393 -1.325900
							CHANNELS 3 Xrotation Yrotation Zrotation
							JOINT HairD1
							{
								OFFSET -3.290299 -11.051193 1.062200
								CHANNELS 3 Xrotation Yrotation Zrotation
								End Site
								{
									OFFSET 0.000000 11.579437 0.000000
								}
							}
						}
						JOINT HairB
						{
							OFFSET -10.777400 17.437393 1.467900
							CHANNELS 3 Xrotation Yrotation Zrotation
							JOINT HairB1
							{
								OFFSET -1.561200 -12.956299 3.590200
								CHANNELS 3 Xrotation Yrotation Zrotation
								End Site
								{
									OFFSET 0.000000 13.534866 0.000000
								}
							}
						}
						JOINT HairA
						{
							OFFSET 9.713100 17.437393 1.467900
							CHANNELS 3 Xrotation Yrotation Zrotation
							JOINT HairA1
							{
								OFFSET 1.561200 -12.956299 3.590200
								CHANNELS 3 Xrotation Yrotation Zrotation
								End Site
								{
									OFFSET 0.000000 13.534866 0.000000
								}
							}
						}
						JOINT HairC
						{
							OFFSET 9.713100 17.437393 -1.325900
							CHANNELS 3 Xrotation Yrotation Zrotation
							JOINT HairC1
							{
								OFFSET 3.290300 -11.051193 1.062200
								CHANNELS 3 Xrotation Yrotation Zrotation
								End Site
								{
									OFFSET 0.000000 11.579437 0.000000
								}
							}
						}
					}
				}
				JOINT LeftShoulder
				{
					OFFSET 5.101800 15.108002 -2.763700
					CHANNELS 3 Xrotation Yrotation Zrotation
					JOINT LeftArm
					{
						OFFSET 9.825497 2.506317 -1.597400
						CHANNELS 3 Xrotation Yrotation Zrotation
						JOINT LeftForeArm
						{
							OFFSET 21.966244 0.000000 0.000000
							CHANNELS 3 Xrotation Yrotation Zrotation
							JOINT LeftHand
							{
								OFFSET 33.879036 0.000000 0.000000
								CHANNELS 3 Xrotation Yrotation Zrotation
								JOINT LeftHandThumb1
								{
									OFFSET 6.715286 -2.359680 3.363841
									CHANNELS 3 Xrotation Yrotation Zrotation
									JOINT LeftHandThumb2
									{
										OFFSET 2.507072 -1.447464 1.447461
										CHANNELS 3 Xrotation Yrotation Zrotation
										JOINT LeftHandThumb3
										{
											OFFSET 2.898338 -1.673355 1.673357
											CHANNELS 3 Xrotation Yrotation Zrotation
											End Site
											{
												OFFSET -0.295959 3.727692 -0.131651
											}
										}
									}
								}
								JOINT LeftHandIndex1
								{
									OFFSET 14.190811 -0.254547 3.840278
									CHANNELS 3 Xrotation Yrotation Zrotation
									JOINT LeftHandIndex2
									{
										OFFSET 3.551727 0.000000 -0.000000
										CHANNELS 3 Xrotation Yrotation Zrotation
										JOINT LeftHandIndex3
										{
											OFFSET 2.894196 0.000000 0.000000
											CHANNELS 3 Xrotation Yrotation Zrotation
											End Site
											{
												OFFSET -1.000603 2.690872 0.366626
											}
										}
									}
								}
								JOINT LeftHandMiddle1
								{
									OFFSET 13.776489 0.000000 0.000000
									CHANNELS 3 Xrotation Yrotation Zrotation
									JOINT LeftHandMiddle2
									{
										OFFSET 3.438232 0.000000 0.000000
										CHANNELS 3 Xrotation Yrotation Zrotation
										JOINT LeftHandMiddle3
										{
											OFFSET 3.691551 0.000000 0.000000
											CHANNELS 3 Xrotation Yrotation Zrotation
											End Site
											{
												OFFSET -1.082298 3.499527 0.457670
											}
										}
									}
								}
								JOINT LeftHandRing1
								{
									OFFSET 13.966164 -0.268127 -3.067488
									CHANNELS 3 Xrotation Yrotation Zrotation
									JOINT LeftHandRing2
									{
										OFFSET 3.162567 0.000000 0.000000
										CHANNELS 3 Xrotation Yrotation Zrotation
										JOINT LeftHandRing3
										{
											OFFSET 3.324348 0.000000 0.000000
											CHANNELS 3 Xrotation Yrotation Zrotation
											End Site
											{
												OFFSET -0.861900 3.184998 0.405154
											}
										}
									}
								}
								JOINT LeftHandPinky1
								{
									OFFSET 13.131393 -0.168503 -5.746925
									CHANNELS 3 Xrotation Yrotation Zrotation
									JOINT LeftHandPinky2
									{
										OFFSET 2.849182 0.000000 0.000000
										CHANNELS 3 Xrotation Yrotation Zrotation
										JOINT LeftHandPinky3
										{
											OFFSET 2.805038 0.000000 0.000000
											CHANNELS 3 Xrotation Yrotation Zrotation
											End Site
											{
												OFFSET -0.882500 2.642609 0.325652
											}
										}
									}
								}
							}
							JOINT Left_Sleeve
							{
								OFFSET 6.592125 -0.646545 0.805568
								CHANNELS 3 Xrotation Yrotation Zrotation
								End Site
								{
									OFFSET -0.000179 20.275787 -0.000000
								}
							}
						}
					}
				}
				JOINT RightShoulder
				{
					OFFSET -5.731700 15.108002 -2.763700
					CHANNELS 3 Xrotation Yrotation Zrotation
					JOINT RightArm
					{
						OFFSET -9.825497 2.506317 -1.597400
						CHANNELS 3 Xrotation Yrotation Zrotation
						JOINT RightForeArm
						{
							OFFSET -21.966242 0.000000 0.000000
							CHANNELS 3 Xrotation Yrotation Zrotation
							JOINT RightHand
							{
								OFFSET -33.879032 0.000000 0.000000
								CHANNELS 3 Xrotation Yrotation Zrotation
								JOINT RightHandThumb1
								{
									OFFSET -6.715286 -2.359680 3.363841
									CHANNELS 3 Xrotation Yrotation Zrotation
									JOINT RightHandThumb2
									{
										OFFSET -2.507072 -1.447464 1.447461
										CHANNELS 3 Xrotation Yrotation Zrotation
										JOINT RightHandThumb3
										{
											OFFSET -2.898338 -1.673355 1.673357
											CHANNELS 3 Xrotation Yrotation Zrotation
											End Site
											{
												OFFSET 0.295959 3.727692 -0.131651
											}
										}
									}
								}
								JOINT RightHandIndex1
								{
									OFFSET -14.190811 -0.254547 3.840278
									CHANNELS 3 Xrotation Yrotation Zrotation
									JOINT RightHandIndex2
									{
										OFFSET -3.551727 0.000000 -0.000000
										CHANNELS 3 Xrotation Yrotation Zrotation
										JOINT RightHandIndex3
										{
											OFFSET -2.894196 0.000000 0.000000
											CHANNELS 3 Xrotation Yrotation Zrotation
											End Site
											{
												OFFSET 1.000603 2.690872 0.366626
											}
										}
									}
								}
								JOINT RightHandMiddle1
								{
									OFFSET -13.776489 0.000000 0.000000
									CHANNELS 3 Xrotation Yrotation Zrotation
									JOINT RightHandMiddle2
									{
										OFFSET -3.438232 0.000000 0.000000
										CHANNELS 3 Xrotation Yrotation Zrotation
										JOINT RightHandMiddle3
										{
											OFFSET -3.691551 0.000000 0.000000
											CHANNELS 3 Xrotation Yrotation Zrotation
											End Site
											{
												OFFSET 1.082298 3.499527 0.457670
											}
										}
									}
								}
								JOINT RightHandRing1
								{
									OFFSET -13.966164 -0.268127 -3.067488
									CHANNELS 3 Xrotation Yrotation Zrotation
									JOINT RightHandRing2
									{
										OFFSET -3.162567 0.000000 0.000000
										CHANNELS 3 Xrotation Yrotation Zrotation
										JOINT RightHandRing3
										{
											OFFSET -3.324348 0.000000 0.000000
											CHANNELS 3 Xrotation Yrotation Zrotation
											End Site
											{
												OFFSET 0.861900 3.184998 0.405154
											}
										}
									}
								}
								JOINT RightHandPinky1
								{
									OFFSET -13.131393 -0.168503 -5.746925
									CHANNELS 3 Xrotation Yrotation Zrotation
									JOINT RightHandPinky2
									{
										OFFSET -2.849182 0.000000 0.000000
										CHANNELS 3 Xrotation Yrotation Zrotation
										JOINT RightHandPinky3
										{
											OFFSET -2.805038 0.000000 0.000000
											CHANNELS 3 Xrotation Yrotation Zrotation
											End Site
											{
												OFFSET 0.882500 2.642609 0.325652
											}
										}
									}
								}
							}
							JOINT Right_Sleeve
							{
								OFFSET -6.592125 -0.646545 0.805568
								CHANNELS 3 Xrotation Yrotation Zrotation
								End Site
								{
									OFFSET 0.000179 20.275787 -0.000000
								}
							}
						}
					}
				}
				JOINT Bind_Right_JacketString
				{
					OFFSET -3.534800 11.969597 7.200700
					CHANNELS 3 Xrotation Yrotation Zrotation
					JOINT Bind_Right_JacketString1
					{
						OFFSET -0.319900 -6.102600 2.794100
						CHANNELS 3 Xrotation Yrotation Zrotation
						End Site
						{
							OFFSET 0.000000 6.719452 0.000000
						}
					}
				}
				JOINT Bind_Left_JacketString
				{
					OFFSET 2.904800 11.969597 7.200700
					CHANNELS 3 Xrotation Yrotation Zrotation
					JOINT Bind_Left_JacketString1
					{
						OFFSET 0.364800 -5.904503 3.186800
						CHANNELS 3 Xrotation Yrotation Zrotation
						End Site
						{
							OFFSET 0.000000 6.719513 0.000000
						}
					}
				}
				JOINT HairE
				{
					OFFSET 5.915200 17.612701 -11.592200
					CHANNELS 3 Xrotation Yrotation Zrotation
					JOINT HairE1
					{
						OFFSET 0.289200 -7.171898 -1.284500
						CHANNELS 3 Xrotation Yrotation Zrotation
						End Site
						{
							OFFSET 0.000000 7.291756 0.000000
						}
					}
				}
				JOINT HairF
				{
					OFFSET -0.864800 17.612701 -11.592200
					CHANNELS 3 Xrotation Yrotation Zrotation
					JOINT HairF1
					{
						OFFSET 0.000000 -14.087097 -2.127501
						CHANNELS 3 Xrotation Yrotation Zrotation
						End Site
						{
							OFFSET 0.000000 14.246841 0.000000
						}
					}
				}
				JOINT HairG
				{
					OFFSET -8.087700 17.612701 -11.592200
					CHANNELS 3 Xrotation Yrotation Zrotation
					JOINT HairG1
					{
						OFFSET -0.293600 -6.081398 -0.910100
						CHANNELS 3 Xrotation Yrotation Zrotation
						End Site
						{
							OFFSET 0.000000 6.156120 0.000000
						}
					}
				}
			}
		}
	}
	JOINT Pouch
	{
		OFFSET 0.000000 4.394501 10.847300
		CHANNELS 3 Xrotation Yrotation Zrotation
		End Site
		{
			OFFSET 0.000000 21.880577 0.000000
		}
	}
	JOINT Bag
	{
		OFFSET -13.229000 4.813004 -0.593300
		CHANNELS 3 Xrotation Yrotation Zrotation
		End Site
		{
			OFFSET 0.000000 21.880577 0.000000
		}
	}
	JOINT OccupyGuyFacialAnim_Joint
	{
		OFFSET 1.000000 -70.206398 -1.655000
		CHANNELS 3 Xrotation Yrotation Zrotation
		End Site
		{
			OFFSET 0.000000 21.880577 0.000000
		}
	}
}
MOTION
Frames: 4
Frame Time: 0.016667
-0.170754 69.790932 1.339066 -0.893101 1.580265 -4.917968 0.000000 -0.000000 0.000000 -17.807866 11.378771 15.409134 23.368517 9.306246 2.402639 -4.364099 3.644942 -9.537425 -0.000000 -0.000000 0.000000 -0.000001 0.000000 0.000000 2.293887 -4.120874 11.116426 9.427475 -5.307153 3.258788 -10.881659 1.164637 -8.297351 0.000000 0.000001 0.000000 -0.000000 -0.000000 -0.000000 1.288777 -1.210038 2.575720 0.728744 0.264195 5.944686 0.710789 0.781493 5.851997 1.045309 -0.304693 -2.163985 1.584931 0.544178 -8.140496 0.000000 0.000000 -0.000000 0.000000 0.000000 -0.000000 0.000000 0.000000 0.000000 0.000000 0.000000 0.000000 -0.000000 -0.000000 -0.000000 0.000000 0.000000 0.000000 -0.000000 -0.000000 -0.000000 0.000000 0.000000 -0.000000 0.000000 0.000000 -0.000000 3.582360 -13.764040 -5.044451 4.032787 3.514254 -83.678328 -0.000004 -14.506748 0.000009 -27.592509 3.698835 -9.416211 18.491274 -0.461403 10.916068 1.284073 32.757594 -3.088975 0.000000 0.000001 0.000001 0.339564 4.671354 -7.844269 0.387032 2.823570 -20.566220 0.000002 0.000001 -0.000002 0.912585 8.769268 -15.831742 0.919075 3.991130 -33.400417 -0.000001 -0.000001 0.000002 2.555823 11.673011 -26.909209 1.710653 3.886789 -40.215471 -0.000000 -0.000000 0.000004 5.576069 16.029180 -36.940621 1.378692 4.077646 -45.645632 0.000000 0.000001 0.000001 -0.000001 0.000000 0.000001 4.508129 3.324373 5.471577 -1.219627 0.655874 67.345447 0.000000 17.736789 -0.000016 -11.193159 -9.123236 10.139283 18.491270 0.461406 -10.916072 1.284063 -32.757615 3.088955 -0.000002 -0.000001 -0.000000 0.339561 -4.671358 7.844289 0.387031 -2.823571 20.566248 -0.000000 -0.000000 -0.000002 0.912581 -8.769270 15.831764 0.919075 -3.991131 33.400424 0.000001 0.000000 -0.000004 2.555819 -11.673010 26.909188 1.710652 -3.886791 40.215467 0.000001 -0.000000 0.000003 5.576079 -16.029175 36.940634 1.378688 -4.077641 45.645618 -0.000001 0.000001 -0.000001 0.000000 0.000001 -0.000000 -0.000000 -0.000000 0.000000 -0.000000 -0.000000 -0.000000 -0.000000 -0.000000 0.000000 -0.000000 -0.000000 0.000000 -0.000000 -0.000000 0.000000 -0.000000 -0.000000 0.000000 -0.000000 -0.000000 0.000000 -0.000000 -0.000000 0.000000 -0.000000 -0.000000 0.000000 -0.000000 -0.000000 0.000000 0.000000 -0.000000 0.000000 0.000000 -0.000000 0.000000 0.000000 -0.000000 0.000000 
-0.271431 69.785774 1.326118 -0.842642 1.630877 -5.022258 0.000000 0.000000 0.000000 -17.910986 11.277133 15.584076 23.343703 9.395018 2.426581 -4.282370 3.532667 -9.637998 -0.000000 0.000000 0.000000 -0.000000 -0.000000 -0.000000 2.450126 -3.968418 11.336723 8.961074 -5.434906 3.281736 -10.653136 1.131490 -8.425540 -0.000000 -0.000000 -0.000000 0.000000 0.000000 0.000000 1.252571 -1.209264 2.597261 0.804996 0.271352 5.942363 0.791298 0.784184 5.830781 0.939035 -0.325876 -2.038776 0.998201 0.423417 -7.945851 0.000000 0.000000 -0.000000 0.000000 0.000000 -0.000000 0.000000 0.000000 -0.000000 0.000000 0.000000 0.000000 -0.000000 -0.000000 0.000000 0.000000 0.000000 0.000000 -0.000000 -0.000000 0.000000 0.000000 0.000000 -0.000000 0.000000 0.000000 -0.000000 3.578789 -13.707247 -5.015859 3.780837 3.390085 -83.456053 -0.000002 -14.511152 -0.000026 -27.318755 4.020861 -9.432641 18.491269 -0.461403 10.916068 1.284073 32.757598 -3.088977 0.000000 0.000002 0.000001 0.339563 4.671355 -7.844269 0.387031 2.823569 -20.566222 0.000001 0.000000 -0.000000 0.912584 8.769268 -15.831742 0.919074 3.991131 -33.400417 0.000001 -0.000001 0.000002 2.555823 11.673008 -26.909210 1.710650 3.886789 -40.215474 -0.000000 0.000001 -0.000002 5.576069 16.029175 -36.940617 1.378692 4.077646 -45.645628 -0.000001 -0.000001 0.000003 -0.000001 0.000000 -0.000000 4.481673 3.349431 5.590982 -1.177693 1.237861 67.216247 -0.000004 17.736825 0.000016 -11.184836 -8.945786 10.174456 18.491276 0.461404 -10.916071 1.284060 -32.757608 3.088954 -0.000000 0.000003 -0.000000 0.339561 -4.671359 7.844291 0.387032 -2.823572 20.566249 -0.000001 -0.000000 -0.000002 0.912581 -8.769271 15.831764 0.919075 -3.991131 33.400424 -0.000000 -0.000001 -0.000001 2.555819 -11.673013 26.909192 1.710652 -3.886792 40.215471 -0.000002 -0.000000 0.000001 5.576078 -16.029175 36.940634 1.378689 -4.077643 45.645621 -0.000001 0.000001 0.000001 0.000000 -0.000001 0.000000 -0.000000 0.000000 0.000001 0.000000 0.000000 0.000001 -0.000000 0.000000 0.000001 -0.000000 0.000000 0.000001 -0.000000 0.000000 0.000001 0.000000 0.000000 0.000001 -0.000000 0.000000 0.000001 -0.000000 0.000000 0.000001 -0.000000 0.000000 0.000001 0.000000 0.000000 0.000001 0.000000 0.000000 0.000000 0.000000 0.000000 0.000000 0.000000 0.000000 0.000000 
-0.371066 69.778641 1.314905 -0.793092 1.684049 -5.129302 0.000000 0.000000 0.000000 -18.022134 11.171940 15.761288 23.338534 9.472771 2.453306 -4.211403 3.430307 -9.740242 -0.000000 0.000000 -0.000000 0.000000 -0.000000 -0.000000 2.606304 -3.814198 11.558776 8.499621 -5.564124 3.304387 -10.429949 1.098572 -8.553764 -0.000000 0.000000 0.000000 -0.000000 0.000000 -0.000000 1.216239 -1.217494 2.617891 0.883787 0.274246 5.935621 0.874439 0.782059 5.804658 0.823465 -0.344953 -1.909928 0.389958 0.303444 -7.738951 0.000000 -0.000000 0.000000 0.000000 -0.000000 0.000000 0.000000 -0.000000 0.000000 0.000000 -0.000000 0.000000 0.000000 -0.000000 0.000000 0.000000 -0.000000 0.000000 0.000000 -0.000000 0.000000 0.000000 -0.000000 0.000000 0.000000 -0.000000 0.000000 3.574453 -13.651339 -4.988282 3.522156 3.255681 -83.224612 0.000003 -14.517244 -0.000007 -27.029898 4.361247 -9.454720 18.491270 -0.461403 10.916070 1.284076 32.757604 -3.088977 -0.000000 0.000001 0.000000 0.339562 4.671355 -7.844268 0.387033 2.823569 -20.566220 -0.000000 0.000000 -0.000002 0.912584 8.769269 -15.831742 0.919077 3.991129 -33.400417 0.000001 -0.000001 0.000002 2.555822 11.673009 -26.909209 1.710651 3.886787 -40.215467 0.000000 0.000000 -0.000003 5.576070 16.029175 -36.940617 1.378690 4.077646 -45.645635 -0.000001 -0.000000 0.000001 0.000002 0.000001 0.000001 4.449803 3.381857 5.730772 -1.131086 1.840464 67.077089 -0.000003 17.687980 0.000004 -11.183869 -8.708324 10.219243 18.491270 0.461403 -10.916072 1.284060 -32.757608 3.088955 -0.000000 0.000002 0.000000 0.339561 -4.671357 7.844286 0.387030 -2.823573 20.566249 -0.000000 0.000000 0.000000 0.912582 -8.769270 15.831764 0.919076 -3.991132 33.400428 -0.000000 -0.000001 -0.000001 2.555819 -11.673008 26.909192 1.710652 -3.886791 40.215471 -0.000001 -0.000000 0.000003 5.576080 -16.029175 36.940634 1.378689 -4.077639 45.645621 -0.000001 0.000002 -0.000001 0.000001 0.000002 -0.000000 0.000000 -0.000000 -0.000001 0.000000 -0.000000 -0.000000 0.000000 -0.000000 -0.000001 0.000000 -0.000000 -0.000001 0.000000 -0.000000 -0.000001 0.000000 -0.000000 -0.000000 0.000000 -0.000000 -0.000001 0.000000 -0.000000 -0.000001 0.000000 -0.000000 -0.000001 0.000000 -0.000000 -0.000000 0.000000 0.000000 0.000000 0.000000 0.000000 0.000000 0.000000 0.000000 0.000000 
-0.467115 69.766441 1.308439 -0.745771 1.744221 -5.242278 0.000000 0.000000 0.000000 -18.155025 11.057755 15.942947 23.387196 9.521442 2.487046 -4.170578 3.354168 -9.846867 -0.000000 0.000002 -0.000000 0.000001 0.000001 -0.000000 2.730924 -3.662015 11.780683 8.114920 -5.697451 3.326049 -10.250305 1.067499 -8.673754 0.000000 0.000000 0.000000 0.000000 0.000000 -0.000000 1.180034 -1.234238 2.637814 0.965308 0.273020 5.924296 0.960402 0.775222 5.773463 0.698737 -0.362127 -1.777485 -0.238803 0.182365 -7.518669 0.000000 0.000000 -0.000000 0.000000 0.000000 -0.000000 0.000000 0.000000 -0.000000 0.000000 0.000000 -0.000000 0.000000 -0.000000 -0.000000 0.000000 0.000000 -0.000000 0.000000 -0.000000 -0.000000 0.000000 0.000000 -0.000000 0.000000 0.000000 -0.000000 3.569241 -13.596742 -4.962269 3.256768 3.110453 -82.983137 0.000005 -14.524935 0.000030 -26.724491 4.721303 -9.483423 18.491274 -0.461403 10.916067 1.284074 32.757594 -3.088978 0.000000 -0.000000 0.000000 0.339563 4.671353 -7.844267 0.387030 2.823569 -20.566219 0.000002 0.000001 -0.000003 0.912586 8.769267 -15.831740 0.919074 3.991129 -33.400417 0.000002 -0.000001 0.000004 2.555823 11.673009 -26.909209 1.710653 3.886788 -40.215474 0.000000 -0.000000 0.000002 5.576070 16.029177 -36.940614 1.378691 4.077647 -45.645632 0.000002 -0.000001 0.000003 0.000001 0.000001 -0.000001 4.412044 3.421892 5.891966 -1.079196 2.463878 66.927159 -0.000001 17.587209 -0.000008 -11.191069 -8.406587 10.273788 18.491276 0.461406 -10.916072 1.284064 -32.757608 3.088957 0.000000 0.000001 0.000001 0.339562 -4.671357 7.844288 0.387030 -2.823571 20.566248 0.000000 -0.000000 0.000002 0.912582 -8.769270 15.831762 0.919075 -3.991132 33.400424 -0.000000 -0.000000 -0.000003 2.555820 -11.673011 26.909195 1.710653 -3.886792 40.215474 -0.000000 0.000000 0.000002 5.576081 -16.029175 36.940638 1.378689 -4.077643 45.645628 -0.000000 -0.000000 0.000001 0.000001 -0.000001 -0.000000 -0.000000 -0.000000 -0.000001 -0.000000 0.000000 -0.000001 -0.000000 -0.000000 -0.000001 -0.000000 -0.000000 -0.000001 -0.000000 -0.000000 -0.000001 -0.000000 0.000000 -0.000001 -0.000000 -0.000000 -0.000001 -0.000000 -0.000000 -0.000001 -0.000000 -0.000000 -0.000001 -0.000000 0.000000 -0.000001 0.000000 0.000000 0.000000 0.000000 0.000000 0.000000 0.000000 0.000000 0.000000 
